<svg xmlns="http://www.w3.org/2000/svg" viewBox="0 0 24 24"><path d="M24 5v1a1 1 0 0 1-1 1v.003A1.997 1.997 0 0 1 21.003 9H1.647C.658 9.013-.073 8.148 0 7.189V5c0-.53.434-1.02.963-1.001a1 1 0 0 0 1.036-1.036C1.98 2.433 2.47 2 3 2h16a1 1 0 0 1 2 0c1.081 0 1.961.866 1.996 1.946A.3.3 0 0 0 23 4a1 1 0 0 1 1 1m-9.936 7.862A2.98 2.98 0 0 1 11.19 15H8.707l.663-2H11a1 1 0 0 0 0-2H2.529a5.4 5.4 0 0 1-.176.809L.172 18.004c-.718 1.873.824 4.051 2.83 3.996h.763a3.63 3.63 0 0 0 3.449-2.491l.839-2.532c.039.005.073.023.114.023h3.024a4.97 4.97 0 0 0 4.79-3.563L16.712 11h-2.088l-.558 1.862Z"/></svg>