<svg xmlns="http://www.w3.org/2000/svg" viewBox="0 0 24 24"><path d="M8.734 7.322a1.5 1.5 0 0 1 0-2.121l.7-.7 3.504 3.504-.7.7a1.5 1.5 0 0 1-2.122 0zM5.682 4.074a1 1 0 1 0 1.637-1.148L5.564.426a1 1 0 1 0-1.637 1.148zm1.639 4.66a1.5 1.5 0 0 0-2.121 0l-.701.7 3.504 3.504.7-.7a1.5 1.5 0 0 0 0-2.122zm7.991-3.104a2.164 2.164 0 0 1 3.056 0 2.164 2.164 0 0 1 0 3.056l-.959.961 3.504 3.504 1.003-1.004c1.345-1.344 2.085-3.131 2.085-5.033s-.74-3.688-2.085-5.033c-2.774-2.775-7.29-2.775-10.064 0l-1.003 1.004 3.505 3.504.959-.961zm-.018 6.132a1.5 1.5 0 0 0 0 2.121l1.383 1.383a1.5 1.5 0 0 0 2.122 0l.7-.7-3.504-3.504-.7.701zm-6.609 6.605a2.164 2.164 0 0 1-3.056 0 2.164 2.164 0 0 1 0-3.056l.961-.959-3.505-3.504-1.004 1.003c-2.775 2.774-2.775 7.29 0 10.064C3.425 23.26 5.213 24 7.114 24s3.688-.74 5.033-2.085l1.004-1.003-3.504-3.504-.961.959zm12.389-1.686a1 1 0 0 0-1.149 1.638l2.5 1.754a1 1 0 0 0 1.149-1.638zm-2.756 3.245a1 1 0 1 0-1.637 1.148l1.754 2.5a1 1 0 1 0 1.637-1.148zm-4.436-4.631a1.5 1.5 0 0 0-2.121 0l-.701.7 3.504 3.504.7-.7a1.5 1.5 0 0 0 0-2.122l-1.383-1.383zM2.926 7.319a1 1 0 0 0 1.149-1.638l-2.5-1.754A1 1 0 0 0 .426 5.565z"/></svg>