<svg xmlns="http://www.w3.org/2000/svg" viewBox="0 0 24 24"><path d="m23.33 7.634-.549-.317C22.91 6.898 23 6.461 23 6s-.09-.897-.219-1.317l.549-.317a1 1 0 0 0-1-1.732l-.544.314A4.5 4.5 0 0 0 19.5 1.621V1a1 1 0 1 0-2 0v.621a4.5 4.5 0 0 0-2.286 1.327l-.544-.314a1 1 0 1 0-1 1.732l.549.317C14.09 5.102 14 5.539 14 6s.09.897.219 1.317l-.549.317a.999.999 0 0 0 .501 1.866c.17 0 .342-.043.499-.134l.544-.314a4.5 4.5 0 0 0 2.286 1.327V11a1 1 0 1 0 2 0v-.621a4.5 4.5 0 0 0 2.286-1.327l.544.314A1 1 0 0 0 23.696 9a1 1 0 0 0-.366-1.366M18.5 7.5c-.827 0-1.5-.673-1.5-1.5s.673-1.5 1.5-1.5S20 5.173 20 6s-.673 1.5-1.5 1.5M0 1a1 1 0 0 1 1-1h9a1 1 0 1 1 0 2v6H1V2a1 1 0 0 1-1-1m10 9v9.5c0 2.481-2.019 4.5-4.5 4.5S1 21.981 1 19.5V10zm6.764 8.057.53 1.404h-1.065zM24 17v4a3 3 0 0 1-3 3h-6a3 3 0 0 1-3-3v-4a3 3 0 0 1 3-3h6a3 3 0 0 1 3 3m-4.762 4.18-1.772-4.695a.749.749 0 0 0-1.399-.002l-1.787 4.691a.608.608 0 0 0 .568.825h-.001a.61.61 0 0 0 .569-.394l.351-.931h1.983l.352.934a.607.607 0 0 0 1.136-.428m2.261-4.562a.618.618 0 0 0-1.236 0v4.764a.618.618 0 0 0 1.236 0z"/></svg>