<svg xmlns="http://www.w3.org/2000/svg" viewBox="0 0 24 24"><path d="m23.707 22.293-5.969-5.969A9.95 9.95 0 0 0 20 10c0-5.514-4.486-10-10-10S0 4.486 0 10s4.486 10 10 10c2.397 0 4.599-.85 6.324-2.262l5.969 5.969a.999.999 0 1 0 1.414-1.414M14.5 16c-.849.004-1.557-.726-1.492-1.578l-.622-.622a4.5 4.5 0 0 1-1.386.579V15a1 1 0 1 1-2 0v-.621a4.4 4.4 0 0 1-1.386-.579l-.622.622c.065.852-.643 1.582-1.492 1.578A1.5 1.5 0 0 1 4 14.5c-.004-.849.726-1.557 1.578-1.492l.622-.622A4.5 4.5 0 0 1 5.621 11H5a1 1 0 1 1 0-2h.621c.114-.5.313-.965.579-1.386l-.622-.622C4.726 7.057 3.996 6.349 4 5.5A1.5 1.5 0 0 1 5.5 4c.849-.004 1.557.726 1.492 1.578l.622.622A4.5 4.5 0 0 1 9 5.621V5a1 1 0 1 1 2 0v.621c.5.114.965.313 1.386.579l.622-.622c-.065-.852.643-1.582 1.492-1.578A1.5 1.5 0 0 1 16 5.5c.004.849-.726 1.557-1.578 1.492l-.622.622c.266.421.465.887.579 1.386H15a1 1 0 1 1 0 2h-.621c-.114.5-.313.965-.579 1.386l.622.622c.852-.065 1.582.643 1.578 1.492a1.5 1.5 0 0 1-1.5 1.5m-2-6c0 1.379-1.122 2.5-2.5 2.5S7.5 11.379 7.5 10 8.622 7.5 10 7.5s2.5 1.121 2.5 2.5"/></svg>